<?xml version="1.0" encoding="UTF-8" standalone="no"?>
<!-- Generator: Adobe Illustrator 13.0.0, SVG Export Plug-In  -->

<svg
   xmlns:dc="http://purl.org/dc/elements/1.1/"
   xmlns:cc="http://creativecommons.org/ns#"
   xmlns:rdf="http://www.w3.org/1999/02/22-rdf-syntax-ns#"
   xmlns:svg="http://www.w3.org/2000/svg"
   xmlns="http://www.w3.org/2000/svg"
   xmlns:sodipodi="http://sodipodi.sourceforge.net/DTD/sodipodi-0.dtd"
   xmlns:inkscape="http://www.inkscape.org/namespaces/inkscape"
   version="1.1"
   x="0px"
   y="0px"
   width="666.59955"
   height="414.74722"
   viewBox="-21.914 -25.609 666.59955 414.74722"
   enable-background="new -21.914 -25.609 507 459"
   xml:space="preserve"
   id="svg1094"
   sodipodi:docname="rhr.svg"
   inkscape:version="0.92.3 (2405546, 2018-03-11)"><sodipodi:namedview
   pagecolor="#ffffff"
   bordercolor="#666666"
   borderopacity="1"
   objecttolerance="10"
   gridtolerance="10"
   guidetolerance="10"
   inkscape:pageopacity="0"
   inkscape:pageshadow="2"
   inkscape:window-width="1916"
   inkscape:window-height="1041"
   id="namedview1096"
   showgrid="false"
   inkscape:zoom="1.4542675"
   inkscape:cx="267.29431"
   inkscape:cy="180.18985"
   inkscape:window-x="0"
   inkscape:window-y="18"
   inkscape:window-maximized="0"
   inkscape:current-layer="svg1094"
   fit-margin-top="0"
   fit-margin-left="0"
   fit-margin-right="0"
   fit-margin-bottom="0" /><metadata
   id="metadata1098"><rdf:RDF><cc:Work
       rdf:about=""><dc:format>image/svg+xml</dc:format><dc:type
         rdf:resource="http://purl.org/dc/dcmitype/StillImage" /><dc:title></dc:title></cc:Work></rdf:RDF></metadata>
<defs
   id="defs1024">
</defs>
<path
   style="fill:#d38d5f;stroke:#000000;stroke-width:3"
   inkscape:connector-curvature="0"
   id="path1026"
   d="m 445.068,278.179 c -22,-3 -57,-23 -62,-26 -5,-3 -28,-28 -40,-47 -12,-19 -23,-42 -27,-55 -4,-13 -8,-26 -9,-33 -1,-7 1,-23.5 4,-30.5 -7,-5 -21,-6 -27,7 -6,13 -11,33 -11,46 0,13 22,55 8,61 -14,6 -17,14 -89,-4 -72,-18 -102,-20 -109,-6 -7,14 34,20 56,24 22,4 72.021,22.634 65,32 -4.35,5.802 -9.375,4.488 -20.709,8.488 -19.611,6.922 -19.308,9.966 -43.791,18.345 -24.433,8.362 -22.843,32.226 -15.167,36.23 7.676,4.004 14.016,6.342 46.386,-12.013 14.35,-5.34 31.782,-8.885 47.115,-10.218 15.333,-1.333 24.668,56 41.334,64.667 16.666,8.667 35.999,8 47.999,8 12,0 18.666,2.001 25.333,-1.333 6.667,-3.334 25.334,1.332 35.334,6.666 0,0 38.667,18.667 42,22.667" />
<path
   style="fill:none;stroke:#6b3512;stroke-width:2;stroke-opacity:1"
   inkscape:connector-curvature="0"
   id="path1028"
   d="m 212.569,245.178 c 33.999,-1.999 45.999,30.667 53.999,48.001" />
<path
   style="fill:none;stroke:#6b3512;stroke-width:2;stroke-opacity:1"
   inkscape:connector-curvature="0"
   id="path1030"
   d="m 284.235,219.844 c 0.334,25.334 11.001,46.668 25.333,54.666" />
<path
   style="fill:none;stroke:#6b3512;stroke-width:2;stroke-opacity:1"
   inkscape:connector-curvature="0"
   id="path1032"
   d="m 217.902,205.178 c -8,1.333 -17.333,20 -13.333,25.333" />
<path
   style="fill:none;stroke:#6b3512;stroke-width:2;stroke-opacity:1"
   inkscape:connector-curvature="0"
   id="path1034"
   d="m 175.235,194.511 c -5.333,4 -16,13.333 -13.333,18.667" />
<path
   style="fill:none;stroke:#6b3512;stroke-width:2;stroke-opacity:1"
   inkscape:connector-curvature="0"
   id="path1036"
   d="m 127.235,186.511 c -6.667,4 -8.834,15.501 -10.167,18.167" />
<path
   style="fill:none;stroke:#6b3512;stroke-width:2;stroke-opacity:1"
   inkscape:connector-curvature="0"
   id="path1038"
   d="m 200.569,254.512 c 8,4 12,17.332 9.333,26.666" />
<path
   style="fill:none;stroke:#6b3512;stroke-width:2;stroke-opacity:1"
   inkscape:connector-curvature="0"
   id="path1040"
   d="m 179.382,261.784 c 6.667,4 7.248,23.993 4.581,27.993" />
<path
   style="fill:none;stroke:#6b3512;stroke-width:2;stroke-opacity:1"
   inkscape:connector-curvature="0"
   id="path1042"
   d="m 153.934,272.981 c 8.648,6.485 9.591,15.534 5.089,26.466" />
<path
   style="fill:none;stroke:#6b3512;stroke-width:2;stroke-opacity:1"
   inkscape:connector-curvature="0"
   id="path1044"
   d="m 272.068,210.679 c -4,10 -7,18 -6,24" />
<path
   style="fill:none;stroke:#6b3512;stroke-width:2;stroke-opacity:1"
   inkscape:connector-curvature="0"
   id="path1046"
   d="m 273.068,139.679 c 11.947,1.707 2.677,3.252 25,-1" />
<path
   style="fill:none;stroke:#6b3512;stroke-width:2;stroke-opacity:1"
   inkscape:connector-curvature="0"
   id="path1048"
   d="m 377.235,261.179 c -4,12 -8,15.999 -14.667,19.999" />
<path
   style="fill:#d38d5f;stroke:#000000;stroke-width:3"
   inkscape:connector-curvature="0"
   id="path1050"
   d="m 277.902,348.846 c 15.905,-3.181 27.334,-5.333 36,-8 8.666,-2.667 21.332,-10.001 24.666,-16.667 3.334,-6.666 0.667,-7.999 -1.333,-12.666 -2,-4.667 -23.999,-2 -29.333,0 -5.334,2 -10,4 -32,7.333 -22,3.333 -28,5 -39.334,3.666 -9.292,-1.094 1.335,22.333 6.001,25 4.666,2.667 5.333,7.334 35.333,1.334 z" />
<path
   style="fill:#d38d5f;stroke:#000000;stroke-width:3"
   inkscape:connector-curvature="0"
   id="path1052"
   d="m 294.87,286.179 c 18.897,-1.333 28.348,-2.666 33.435,2.667 5.087,5.333 2.906,10.667 1.453,12 -1.453,1.333 -18.171,8.666 -26.893,11.333 -8.723,2.667 -10.176,0.667 -27.619,4.667 -17.444,4 -18.897,5.333 -23.986,7.333 -5.088,2 -15.263,1.333 -24.711,-6 -9.449,-7.333 -7.996,-20 -7.269,-24 0.727,-4 1.455,-12.667 19.625,-14 18.17,-1.333 12.354,4.666 35.614,5.333 23.258,0.667 20.351,0.667 20.351,0.667 z" />
<path
   style="fill:none;stroke:#6b3512;stroke-width:2;stroke-opacity:1"
   inkscape:connector-curvature="0"
   id="path1054"
   d="m 223.901,292.846 c -1.923,17.305 1.109,18.166 10.667,25.333" />
<path
   style="fill:none;stroke:#6b3512;stroke-width:2;stroke-opacity:1"
   inkscape:connector-curvature="0"
   id="path1056"
   d="m 253.235,293.178 c 0,5.333 1.333,17.333 1.333,17.333" />
<path
   style="fill:none;stroke:#6b3512;stroke-width:2;stroke-opacity:1"
   inkscape:connector-curvature="0"
   id="path1058"
   d="m 286.235,291.511 c 0,2.667 1.334,13.333 1.334,17.333" />
<path
   style="fill:none;stroke:#6b3512;stroke-width:2;stroke-opacity:1"
   inkscape:connector-curvature="0"
   id="path1060"
   d="m 292.901,321.513 c 0,4 6.667,17.333 6.667,17.333" />
<path
   style="fill:none;stroke:#6b3512;stroke-width:2;stroke-opacity:1"
   inkscape:connector-curvature="0"
   id="path1062"
   d="m 260.568,329.179 c 1.333,2.667 2.667,14.666 6.667,16" />
<path
   style="fill:none;stroke:#6b3512;stroke-width:2;stroke-opacity:1"
   inkscape:connector-curvature="0"
   id="path1064"
   d="m 383.901,293.179 c -6.666,12 -10.666,42.668 -17.333,49.334" />
<line
   style="fill:none;stroke:#b869ea;stroke-width:9;stroke-linecap:round;stroke-opacity:1"
   id="line1066"
   y2="16.178999"
   x2="300.89999"
   y1="65.179001"
   x1="301.56799" />
<polygon
   transform="translate(-21.914,-25.609)"
   style="fill:#b869ea;stroke:#b869ea;stroke-opacity:1;fill-opacity:1"
   id="polygon1068"
   points="322.814,41.788 299.501,60.3 322.814,0 346.127,60.3 " />
<line
   style="fill:#ff7878;stroke:#ff7878;stroke-width:9;stroke-linecap:round;stroke-opacity:1;fill-opacity:1"
   id="line1070"
   y2="175.45801"
   x2="18.986002"
   y1="184.85101"
   x1="67.082001" />
<polygon
   transform="translate(-21.914,-25.609)"
   style="fill:#ff7878;fill-opacity:1;stroke:#ff7878;stroke-opacity:1"
   id="polygon1072"
   points="40.9,201.067 54.24,227.68 0,192.5 63.799,182.044 " />
<line
   style="fill:#0000ff;stroke:#51b5f8;stroke-width:9;stroke-linecap:round;stroke-opacity:1;fill-opacity:1"
   id="line1074"
   y2="322.396"
   x2="73.670998"
   y1="309.646"
   x1="104.463" />
<polygon
   transform="translate(-21.914,-25.609)"
   style="fill:#51b5f8;stroke:#51b5f8;stroke-opacity:1;fill-opacity:1"
   id="polygon1076"
   points="95.585,348.005 118.064,371.413 69.063,358.197 96.605,315.568 " />



<flowRoot
   transform="translate(-21.914,-25.609)"
   style="font-style:normal;font-weight:normal;font-size:12.5px;line-height:125%;font-family:sans-serif;letter-spacing:0px;word-spacing:0px;fill:#000000;fill-opacity:1;stroke:none;stroke-width:1px;stroke-linecap:butt;stroke-linejoin:miter;stroke-opacity:1"
   id="flowRoot1643"
   xml:space="preserve"><flowRegion
     id="flowRegion1645"><rect
       y="164.00613"
       x="56.385773"
       height="39.194988"
       width="79.765244"
       id="rect1647" /></flowRegion><flowPara
     id="flowPara1649" /></flowRoot><g
   style="fill:#ff7878;fill-opacity:1;stroke:#ff7878;stroke-opacity:1"
   transform="matrix(2.3773705,0,0,2.3773705,-392.81121,-112.58656)"
   id="g1689"><g
     style="font-style:normal;font-variant:normal;font-weight:normal;font-stretch:normal;letter-spacing:normal;word-spacing:normal;text-anchor:start;fill:#ff7878;fill-opacity:1;fill-rule:evenodd;stroke:#ff7878;stroke-linecap:butt;stroke-linejoin:miter;stroke-miterlimit:10.43299961;stroke-dasharray:none;stroke-dashoffset:0;stroke-opacity:1"
     word-spacing="normal"
     letter-spacing="normal"
     font-size-adjust="none"
     font-stretch="normal"
     font-weight="normal"
     font-variant="normal"
     font-style="normal"
     stroke-miterlimit="10.433"
     xml:space="preserve"
     transform="matrix(0.65571429,0,0,-0.65571429,-114.75,380.25)"
     id="content"><path
       style="fill:#ff7878;stroke-width:0;fill-opacity:1;stroke:#ff7878;stroke-opacity:1"
       inkscape:connector-curvature="0"
       id="path1684"
       d="m 481.67,435.84 -0.07,-0.06 -0.07,-0.07 -0.07,-0.07 -0.09,-0.07 -0.08,-0.08 -0.09,-0.08 -0.09,-0.09 -0.09,-0.08 -0.1,-0.09 -0.1,-0.1 -0.19,-0.19 -0.2,-0.19 -0.19,-0.21 -0.09,-0.1 -0.09,-0.1 -0.09,-0.1 -0.08,-0.11 -0.08,-0.1 -0.08,-0.1 -0.07,-0.1 -0.06,-0.1 -0.06,-0.1 -0.05,-0.1 -0.05,-0.1 -0.04,-0.09 -0.03,-0.09 -0.02,-0.1 -0.02,-0.08 v -0.09 c 0,-0.5 0.5,-1 1,-1 0.45,0 0.7,0.36 0.95,0.66 0.6,0.75 1.74,2.14 3.94,3.23 0.34,0.21 0.84,0.46 0.84,1.05 0,0.5 -0.34,0.75 -0.7,1 -1.09,0.75 -1.64,1.64 -2.05,2.83 -0.09,0.45 -0.29,1.11 -0.98,1.11 -0.71,0 -1,-0.66 -1,-1.05 0,-0.25 0.39,-1.84 1.19,-2.89 h -16.79 c -0.84,0 -1.75,0 -1.75,-1 0,-1 0.91,-1 1.75,-1 z" /><path
       style="fill:#ff7878;stroke-width:0;fill-opacity:1;stroke:#ff7878;stroke-opacity:1"
       inkscape:connector-curvature="0"
       id="path1686"
       d="m 472.95,409 0.06,-0.19 0.06,-0.19 0.07,-0.18 0.07,-0.18 0.08,-0.17 0.09,-0.16 0.1,-0.16 0.1,-0.16 0.1,-0.15 0.11,-0.15 0.12,-0.14 0.12,-0.13 0.13,-0.13 0.13,-0.12 0.14,-0.12 0.14,-0.11 0.15,-0.11 0.15,-0.1 0.16,-0.09 0.16,-0.09 0.16,-0.08 0.17,-0.07 0.18,-0.07 0.17,-0.06 0.18,-0.06 0.18,-0.04 0.19,-0.05 0.19,-0.03 0.19,-0.02 0.19,-0.02 0.2,-0.01 0.2,-0.01 c 1.73,0 2.89,1.14 3.69,2.74 0.84,1.79 1.48,4.84 1.48,4.93 0,0.5 -0.44,0.5 -0.59,0.5 -0.5,0 -0.55,-0.2 -0.7,-0.9 -0.69,-2.78 -1.65,-6.17 -3.74,-6.17 -1.05,0 -1.53,0.65 -1.53,2.29 0,1.1 0.59,3.44 0.98,5.17 l 1.41,5.4 c 0.14,0.75 0.64,2.64 0.84,3.39 0.25,1.14 0.75,3.03 0.75,3.32 0,0.91 -0.7,1.35 -1.45,1.35 -0.25,0 -1.55,-0.05 -1.94,-1.74 -0.95,-3.64 -3.14,-12.36 -3.73,-15 -0.06,-0.2 -2.05,-4.18 -5.69,-4.18 -2.59,0 -3.09,2.25 -3.09,4.09 0,2.78 1.4,6.72 2.7,10.16 0.6,1.5 0.84,2.18 0.84,3.14 0,2.23 -1.59,4.07 -4.09,4.07 -4.73,0 -6.58,-7.21 -6.58,-7.67 0,-0.5 0.5,-0.5 0.61,-0.5 0.5,0 0.55,0.11 0.8,0.91 1.23,4.33 3.14,6.17 5.03,6.17 0.44,0 1.25,-0.05 1.25,-1.64 0,-1.2 -0.56,-2.64 -0.86,-3.39 -1.84,-4.94 -2.89,-8.02 -2.89,-10.45 0,-4.74 3.44,-5.99 6.14,-5.99 3.28,0 5.08,2.24 5.92,3.35 z" /></g></g><g
   style="fill:#51b5f8;stroke:#0000eb;stroke-opacity:1;fill-opacity:1"
   id="g1771"
   transform="matrix(2.3773705,0,0,2.3773705,-367.84381,16.640266)"><g
     id="g1769"
     transform="matrix(0.65571429,0,0,-0.65571429,-114.75,380.25)"
     xml:space="preserve"
     stroke-miterlimit="10.433"
     font-style="normal"
     font-variant="normal"
     font-weight="normal"
     font-stretch="normal"
     font-size-adjust="none"
     letter-spacing="normal"
     word-spacing="normal"
     style="font-style:normal;font-variant:normal;font-weight:normal;font-stretch:normal;letter-spacing:normal;word-spacing:normal;text-anchor:start;fill:#51b5f8;fill-opacity:1;fill-rule:evenodd;stroke:#0000eb;stroke-linecap:butt;stroke-linejoin:miter;stroke-miterlimit:10.43299961;stroke-dasharray:none;stroke-dashoffset:0;stroke-opacity:1"><path
       d="m 480.35,435.84 -0.07,-0.06 -0.07,-0.07 -0.07,-0.07 -0.09,-0.07 -0.08,-0.08 -0.09,-0.08 -0.09,-0.09 -0.09,-0.08 -0.1,-0.09 -0.1,-0.1 -0.19,-0.19 -0.2,-0.19 -0.19,-0.21 -0.09,-0.1 -0.09,-0.1 -0.09,-0.1 -0.08,-0.11 -0.08,-0.1 -0.08,-0.1 -0.07,-0.1 -0.06,-0.1 -0.06,-0.1 -0.05,-0.1 -0.05,-0.1 -0.04,-0.09 -0.03,-0.09 -0.02,-0.1 -0.02,-0.08 v -0.09 c 0,-0.5 0.5,-1 1,-1 0.45,0 0.7,0.36 0.95,0.66 0.59,0.75 1.74,2.14 3.94,3.23 0.34,0.21 0.84,0.46 0.84,1.05 0,0.5 -0.34,0.75 -0.7,1 -1.09,0.75 -1.64,1.64 -2.05,2.83 -0.09,0.45 -0.29,1.11 -0.98,1.11 -0.71,0 -1,-0.66 -1,-1.05 0,-0.25 0.39,-1.84 1.19,-2.89 h -16.79 c -0.84,0 -1.75,0 -1.75,-1 0,-1 0.91,-1 1.75,-1 z"
       id="path1765"
       inkscape:connector-curvature="0"
       style="fill:#51b5f8;stroke-width:0;stroke:#0000eb;stroke-opacity:1;fill-opacity:1" /><path
       d="m 478.83,424.73 v 0.12 l -0.01,0.13 v 0.12 l -0.01,0.11 v 0.12 l -0.01,0.11 -0.02,0.11 -0.01,0.1 -0.03,0.21 -0.04,0.19 -0.04,0.18 -0.05,0.18 -0.05,0.16 -0.06,0.16 -0.06,0.15 -0.07,0.13 -0.07,0.13 -0.07,0.12 -0.08,0.12 -0.08,0.1 -0.08,0.1 -0.09,0.09 -0.09,0.08 -0.09,0.07 -0.09,0.07 -0.09,0.06 -0.09,0.05 -0.09,0.05 -0.09,0.04 -0.1,0.03 -0.09,0.03 -0.09,0.03 -0.09,0.01 -0.09,0.02 h -0.08 -0.09 c -1.25,0 -2.44,-1.29 -2.44,-2.39 0,-0.64 0.25,-0.93 0.8,-1.48 1.05,-1 1.69,-2.3 1.69,-4.09 0,-2.1 -3.03,-13.5 -8.86,-13.5 -2.55,0 -3.69,1.75 -3.69,4.32 0,2.8 1.34,6.44 2.89,10.57 0.35,0.86 0.59,1.54 0.59,2.5 0,2.23 -1.59,4.07 -4.09,4.07 -4.67,0 -6.58,-7.21 -6.58,-7.67 0,-0.5 0.5,-0.5 0.61,-0.5 0.5,0 0.55,0.11 0.8,0.91 1.44,5.03 3.58,6.17 5.03,6.17 0.39,0 1.25,0 1.25,-1.59 0,-1.25 -0.5,-2.6 -0.86,-3.49 -2.19,-5.78 -2.83,-8.08 -2.83,-10.22 0,-5.37 4.38,-6.17 6.67,-6.17 8.38,0 11.21,16.49 11.21,19.08 z"
       id="path1767"
       inkscape:connector-curvature="0"
       style="fill:#51b5f8;stroke-width:0;stroke:#0000eb;stroke-opacity:1;fill-opacity:1" /></g></g><g
   style="fill:#b869ea;fill-opacity:1"
   transform="matrix(2.3773705,0,0,2.3773705,-101.15162,-223.93199)"
   id="g1970"><g
     id="g2163"
     transform="translate(15.952855,-53.994279)"
     style="fill:#b869ea;fill-opacity:1"><g
       word-spacing="normal"
       letter-spacing="normal"
       font-size-adjust="none"
       font-stretch="normal"
       font-weight="normal"
       font-variant="normal"
       font-style="normal"
       stroke-miterlimit="10.433"
       xml:space="preserve"
       transform="matrix(0.59249603,0,0,-0.59249603,-103.68681,407.21736)"
       id="g2161"
       style="font-style:normal;font-variant:normal;font-weight:normal;font-stretch:normal;letter-spacing:normal;word-spacing:normal;text-anchor:start;fill:#b869ea;fill-opacity:1;fill-rule:evenodd;stroke:#000000;stroke-linecap:butt;stroke-linejoin:miter;stroke-miterlimit:10.43299961;stroke-dasharray:none;stroke-dashoffset:0;stroke-opacity:1"><path
         id="path2143"
         d="m 488.63,435.84 -0.07,-0.06 -0.07,-0.07 -0.08,-0.07 -0.08,-0.07 -0.08,-0.08 -0.09,-0.08 -0.09,-0.09 -0.1,-0.08 -0.09,-0.09 -0.1,-0.1 -0.19,-0.19 -0.2,-0.19 -0.19,-0.21 -0.09,-0.1 -0.09,-0.1 -0.09,-0.1 -0.08,-0.11 -0.08,-0.1 -0.08,-0.1 -0.07,-0.1 -0.07,-0.1 -0.05,-0.1 -0.06,-0.1 -0.04,-0.1 -0.04,-0.09 -0.03,-0.09 -0.03,-0.1 -0.01,-0.08 v -0.09 c 0,-0.5 0.5,-1 1,-1 0.45,0 0.7,0.36 0.95,0.66 0.59,0.75 1.73,2.14 3.94,3.23 0.34,0.21 0.84,0.46 0.84,1.05 0,0.5 -0.34,0.75 -0.7,1 -1.1,0.75 -1.64,1.64 -2.05,2.83 -0.09,0.45 -0.3,1.11 -0.98,1.11 -0.71,0 -1,-0.66 -1,-1.05 0,-0.25 0.39,-1.84 1.18,-2.89 h -16.78 c -0.84,0 -1.75,0 -1.75,-1 0,-1 0.91,-1 1.75,-1 z"
         inkscape:connector-curvature="0"
         style="fill:#b869ea;stroke-width:0;fill-opacity:1" /><path
         id="path2145"
         d="m 478.53,423.09 0.03,0.1 0.02,0.11 0.03,0.12 0.03,0.11 0.02,0.12 0.03,0.12 0.06,0.25 0.07,0.25 0.06,0.25 0.06,0.24 0.06,0.25 0.03,0.11 0.03,0.12 0.02,0.11 0.03,0.11 0.02,0.1 0.03,0.1 0.02,0.1 0.02,0.09 0.02,0.08 0.01,0.08 0.02,0.07 0.01,0.06 0.01,0.06 0.01,0.05 v 0.04 0.03 c 0,0.91 -0.7,1.35 -1.45,1.35 -0.6,0 -1.49,-0.39 -1.83,-1.39 -0.16,-0.35 -2.5,-9.86 -2.84,-11.16 -0.36,-1.5 -0.46,-2.39 -0.46,-3.3 0,-0.54 0,-0.64 0.05,-0.89 -1.14,-2.64 -2.64,-4.18 -4.58,-4.18 -3.98,0 -3.98,3.68 -3.98,4.53 0,1.59 0.25,3.54 2.59,9.67 0.55,1.48 0.84,2.19 0.84,3.19 0,2.23 -1.64,4.07 -4.09,4.07 -4.73,0 -6.58,-7.21 -6.58,-7.67 0,-0.5 0.5,-0.5 0.61,-0.5 0.5,0 0.55,0.11 0.8,0.91 1.34,4.62 3.28,6.17 5.03,6.17 0.44,0 1.25,-0.05 1.25,-1.64 0,-1.25 -0.56,-2.64 -0.91,-3.48 -2.18,-5.88 -2.78,-8.18 -2.78,-10.07 0,-4.53 3.33,-6.28 7.07,-6.28 0.86,0 3.18,0 5.18,3.49 1.3,-3.19 4.74,-3.49 6.24,-3.49 3.73,0 5.92,3.14 7.22,6.13 1.68,3.89 3.28,10.56 3.28,12.95 0,2.75 -1.35,3.48 -2.19,3.48 -1.25,0 -2.48,-1.29 -2.48,-2.39 0,-0.64 0.29,-0.93 0.73,-1.34 0.55,-0.55 1.8,-1.84 1.8,-4.23 0,-1.69 -1.44,-6.58 -2.74,-9.11 -1.29,-2.64 -3.04,-4.39 -5.48,-4.39 -2.35,0 -3.69,1.5 -3.69,4.32 0,1.41 0.34,2.96 0.55,3.64 z"
         inkscape:connector-curvature="0"
         style="fill:#b869ea;stroke-width:0;fill-opacity:1" /><path
         id="path2147"
         d="m 540.63,422.5 h 0.14 0.14 0.15 l 0.07,0.01 h 0.07 l 0.07,0.01 0.08,0.01 0.07,0.01 0.07,0.01 0.06,0.01 0.07,0.02 0.06,0.02 0.07,0.02 0.06,0.02 0.06,0.03 0.05,0.03 0.06,0.04 0.05,0.03 0.04,0.05 0.05,0.04 0.04,0.05 0.01,0.03 0.02,0.03 0.02,0.02 0.01,0.03 0.02,0.03 0.01,0.04 0.01,0.03 0.01,0.04 0.01,0.03 0.01,0.04 0.01,0.04 0.01,0.04 v 0.04 0.04 l 0.01,0.04 v 0.05 c 0,1 -0.96,1 -1.64,1 h -29.85 c -0.7,0 -1.64,0 -1.64,-1 0,-0.98 0.94,-0.98 1.69,-0.98 z"
         inkscape:connector-curvature="0"
         style="fill:#b869ea;stroke-width:0;fill-opacity:1" /><path
         id="path2149"
         d="m 540.68,412.82 h 0.06 0.07 l 0.13,0.01 h 0.14 0.07 l 0.07,0.01 0.07,0.01 h 0.07 l 0.07,0.01 0.07,0.02 0.06,0.01 0.07,0.02 0.06,0.02 0.06,0.02 0.06,0.02 0.06,0.03 0.06,0.03 0.05,0.04 0.05,0.04 0.04,0.04 0.05,0.05 0.02,0.02 0.02,0.03 0.01,0.02 0.02,0.03 0.02,0.03 0.01,0.03 0.02,0.03 0.01,0.03 0.01,0.04 0.01,0.03 0.01,0.04 0.01,0.04 0.01,0.04 0.01,0.04 v 0.04 0.04 l 0.01,0.05 v 0.04 c 0,1 -0.96,1 -1.69,1 h -29.75 c -0.75,0 -1.69,0 -1.69,-1 0,-1 0.94,-1 1.64,-1 z"
         inkscape:connector-curvature="0"
         style="fill:#b869ea;stroke-width:0;fill-opacity:1" /><path
         id="path2151"
         d="m 585.1,435.84 -0.07,-0.06 -0.07,-0.07 -0.07,-0.07 -0.09,-0.07 -0.08,-0.08 -0.09,-0.08 -0.09,-0.09 -0.09,-0.08 -0.1,-0.09 -0.1,-0.1 -0.19,-0.19 -0.2,-0.19 -0.19,-0.21 -0.09,-0.1 -0.09,-0.1 -0.09,-0.1 -0.08,-0.11 -0.08,-0.1 -0.08,-0.1 -0.07,-0.1 -0.06,-0.1 -0.06,-0.1 -0.05,-0.1 -0.05,-0.1 -0.04,-0.09 -0.03,-0.09 -0.02,-0.1 -0.02,-0.08 v -0.09 c 0,-0.5 0.5,-1 1,-1 0.45,0 0.7,0.36 0.95,0.66 0.59,0.75 1.74,2.14 3.94,3.23 0.34,0.21 0.84,0.46 0.84,1.05 0,0.5 -0.34,0.75 -0.7,1 -1.09,0.75 -1.64,1.64 -2.05,2.83 -0.09,0.45 -0.29,1.11 -0.98,1.11 -0.71,0 -1,-0.66 -1,-1.05 0,-0.25 0.39,-1.84 1.19,-2.89 h -16.79 c -0.84,0 -1.75,0 -1.75,-1 0,-1 0.91,-1 1.75,-1 z"
         inkscape:connector-curvature="0"
         style="fill:#b869ea;stroke-width:0;fill-opacity:1" /><path
         id="path2153"
         d="m 576.39,409 0.05,-0.19 0.06,-0.19 0.07,-0.18 0.08,-0.18 0.08,-0.17 0.09,-0.16 0.09,-0.16 0.1,-0.16 0.11,-0.15 0.11,-0.15 0.11,-0.14 0.13,-0.13 0.12,-0.13 0.14,-0.12 0.14,-0.12 0.14,-0.11 0.15,-0.11 0.15,-0.1 0.15,-0.09 0.16,-0.09 0.17,-0.08 0.17,-0.07 0.17,-0.07 0.17,-0.06 0.18,-0.06 0.19,-0.04 0.18,-0.05 0.19,-0.03 0.19,-0.02 0.2,-0.02 0.19,-0.01 0.2,-0.01 c 1.74,0 2.9,1.14 3.69,2.74 0.84,1.79 1.49,4.84 1.49,4.93 0,0.5 -0.44,0.5 -0.6,0.5 -0.5,0 -0.55,-0.2 -0.7,-0.9 -0.69,-2.78 -1.64,-6.17 -3.73,-6.17 -1.05,0 -1.54,0.65 -1.54,2.29 0,1.1 0.6,3.44 0.99,5.17 l 1.4,5.4 c 0.15,0.75 0.65,2.64 0.85,3.39 0.25,1.14 0.75,3.03 0.75,3.32 0,0.91 -0.7,1.35 -1.45,1.35 -0.25,0 -1.55,-0.05 -1.94,-1.74 -0.96,-3.64 -3.14,-12.36 -3.74,-15 -0.06,-0.2 -2.04,-4.18 -5.69,-4.18 -2.59,0 -3.09,2.25 -3.09,4.09 0,2.78 1.41,6.72 2.71,10.16 0.59,1.5 0.84,2.18 0.84,3.14 0,2.23 -1.59,4.07 -4.09,4.07 -4.74,0 -6.58,-7.21 -6.58,-7.67 0,-0.5 0.5,-0.5 0.61,-0.5 0.5,0 0.54,0.11 0.79,0.91 1.24,4.33 3.14,6.17 5.03,6.17 0.44,0 1.25,-0.05 1.25,-1.64 0,-1.2 -0.56,-2.64 -0.85,-3.39 -1.85,-4.94 -2.9,-8.02 -2.9,-10.45 0,-4.74 3.44,-5.99 6.15,-5.99 3.28,0 5.07,2.24 5.92,3.35 z"
         inkscape:connector-curvature="0"
         style="fill:#b869ea;stroke-width:0;fill-opacity:1" /><path
         id="path2155"
         d="m 617.92,420.04 -9.95,9.92 c -0.61,0.6 -0.7,0.71 -1.11,0.71 -0.48,0 -0.98,-0.46 -0.98,-1 0,-0.36 0.09,-0.46 0.64,-1 l 9.96,-10.02 -9.96,-10.01 c -0.55,-0.55 -0.64,-0.64 -0.64,-1 0,-0.55 0.5,-0.99 0.98,-0.99 0.41,0 0.5,0.1 1.11,0.69 l 9.91,9.92 10.31,-10.31 c 0.11,-0.05 0.45,-0.3 0.75,-0.3 0.59,0 1,0.44 1,0.99 0,0.11 0,0.31 -0.16,0.56 -0.05,0.09 -7.97,7.92 -10.45,10.45 l 9.11,9.13 c 0.25,0.29 1,0.93 1.25,1.23 0.04,0.11 0.25,0.3 0.25,0.66 0,0.54 -0.41,1 -1,1 -0.39,0 -0.6,-0.21 -1.14,-0.75 z"
         inkscape:connector-curvature="0"
         style="fill:#b869ea;stroke-width:0;fill-opacity:1" /><path
         id="path2157"
         d="m 673.18,435.84 -0.07,-0.06 -0.07,-0.07 -0.08,-0.07 -0.08,-0.07 -0.09,-0.08 -0.09,-0.08 -0.09,-0.09 -0.09,-0.08 -0.1,-0.09 -0.09,-0.1 -0.2,-0.19 -0.19,-0.19 -0.19,-0.21 -0.1,-0.1 -0.09,-0.1 -0.08,-0.1 -0.09,-0.11 -0.08,-0.1 -0.07,-0.1 -0.07,-0.1 -0.07,-0.1 -0.06,-0.1 -0.05,-0.1 -0.05,-0.1 -0.04,-0.09 -0.03,-0.09 -0.02,-0.1 -0.01,-0.08 -0.01,-0.09 c 0,-0.5 0.5,-1 1,-1 0.45,0 0.7,0.36 0.95,0.66 0.6,0.75 1.74,2.14 3.94,3.23 0.35,0.21 0.85,0.46 0.85,1.05 0,0.5 -0.35,0.75 -0.71,1 -1.09,0.75 -1.64,1.64 -2.04,2.83 -0.1,0.45 -0.3,1.11 -0.99,1.11 -0.7,0 -1,-0.66 -1,-1.05 0,-0.25 0.39,-1.84 1.19,-2.89 h -16.78 c -0.84,0 -1.75,0 -1.75,-1 0,-1 0.91,-1 1.75,-1 z"
         inkscape:connector-curvature="0"
         style="fill:#b869ea;stroke-width:0;fill-opacity:1" /><path
         id="path2159"
         d="m 671.66,424.73 v 0.12 l -0.01,0.13 v 0.12 l -0.01,0.11 -0.01,0.12 -0.01,0.11 -0.01,0.11 -0.01,0.1 -0.03,0.21 -0.04,0.19 -0.04,0.18 -0.05,0.18 -0.05,0.16 -0.06,0.16 -0.06,0.15 -0.07,0.13 -0.07,0.13 -0.08,0.12 -0.07,0.12 -0.08,0.1 -0.09,0.1 -0.08,0.09 -0.09,0.08 -0.09,0.07 -0.09,0.07 -0.09,0.06 -0.09,0.05 -0.09,0.05 -0.1,0.04 -0.09,0.03 -0.09,0.03 -0.09,0.03 -0.09,0.01 -0.09,0.02 h -0.09 -0.08 c -1.25,0 -2.44,-1.29 -2.44,-2.39 0,-0.64 0.25,-0.93 0.8,-1.48 1.05,-1 1.69,-2.3 1.69,-4.09 0,-2.1 -3.04,-13.5 -8.86,-13.5 -2.55,0 -3.69,1.75 -3.69,4.32 0,2.8 1.34,6.44 2.89,10.57 0.34,0.86 0.59,1.54 0.59,2.5 0,2.23 -1.59,4.07 -4.09,4.07 -4.67,0 -6.58,-7.21 -6.58,-7.67 0,-0.5 0.5,-0.5 0.61,-0.5 0.5,0 0.55,0.11 0.8,0.91 1.43,5.03 3.58,6.17 5.03,6.17 0.39,0 1.25,0 1.25,-1.59 0,-1.25 -0.5,-2.6 -0.86,-3.49 -2.19,-5.78 -2.83,-8.08 -2.83,-10.22 0,-5.37 4.38,-6.17 6.67,-6.17 8.38,0 11.21,16.49 11.21,19.08 z"
         inkscape:connector-curvature="0"
         style="fill:#b869ea;stroke-width:0;fill-opacity:1" /></g></g></g></svg>